<svg width="416" height="129" viewBox="0 0 416 129" fill="none" xmlns="http://www.w3.org/2000/svg">
<mask id="path-1-outside-1_2_3" maskUnits="userSpaceOnUse" x="0.484375" y="0.125" width="415" height="128" fill="black">
<rect fill="white" x="0.484375" y="0.125" width="415" height="128"/>
<path d="M1.48438 126V2.25H39.1719L49.5781 77.6953L59.9141 2.25H97.9531V126H75.3125V36.8438L61.1094 126H38.8906L23.8438 36.8438V126H1.48438Z"/>
<path d="M108.922 126V2.25H158.422V26.1562H134.094V50.2734H157.438V73.5469H134.094V101.883H160.039V126H108.922Z"/>
<path d="M168.266 126V2.25H193.016V104.906H218.469V126H168.266Z"/>
<path d="M225.5 126V2.25H275V26.1562H250.672V50.2734H274.016V73.5469H250.672V101.883H276.617V126H225.5Z"/>
<path d="M313.672 127.125C304.719 127.125 297.5 124.336 292.016 118.758C286.578 113.18 283.859 105.375 283.859 95.3438V38.25C283.859 26.25 286.227 17.0625 290.961 10.6875C295.742 4.3125 303.5 1.125 314.234 1.125C320.094 1.125 325.297 2.20312 329.844 4.35938C334.438 6.51562 338.047 9.75 340.672 14.0625C343.297 18.3281 344.609 23.7188 344.609 30.2344V51.6094H320V33.3281C320 29.625 319.531 27.1406 318.594 25.875C317.656 24.5625 316.203 23.9062 314.234 23.9062C311.938 23.9062 310.391 24.75 309.594 26.4375C308.797 28.0781 308.398 30.2812 308.398 33.0469V94.9922C308.398 98.4141 308.891 100.828 309.875 102.234C310.906 103.641 312.359 104.344 314.234 104.344C316.344 104.344 317.82 103.477 318.664 101.742C319.555 100.008 320 97.7578 320 94.9922V72.7031H344.891V96.1172C344.891 106.992 342.148 114.891 336.664 119.812C331.18 124.688 323.516 127.125 313.672 127.125Z"/>
<path d="M353.188 126V2.25H377.797V46.4766H389.469V2.25H414.078V126H389.469V69.8906H377.797V126H353.188Z"/>
</mask>
<path d="M1.48438 126V2.25H39.1719L49.5781 77.6953L59.9141 2.25H97.9531V126H75.3125V36.8438L61.1094 126H38.8906L23.8438 36.8438V126H1.48438Z" fill="white"/>
<path d="M108.922 126V2.25H158.422V26.1562H134.094V50.2734H157.438V73.5469H134.094V101.883H160.039V126H108.922Z" fill="white"/>
<path d="M168.266 126V2.25H193.016V104.906H218.469V126H168.266Z" fill="white"/>
<path d="M225.5 126V2.25H275V26.1562H250.672V50.2734H274.016V73.5469H250.672V101.883H276.617V126H225.5Z" fill="white"/>
<path d="M313.672 127.125C304.719 127.125 297.5 124.336 292.016 118.758C286.578 113.18 283.859 105.375 283.859 95.3438V38.25C283.859 26.25 286.227 17.0625 290.961 10.6875C295.742 4.3125 303.5 1.125 314.234 1.125C320.094 1.125 325.297 2.20312 329.844 4.35938C334.438 6.51562 338.047 9.75 340.672 14.0625C343.297 18.3281 344.609 23.7188 344.609 30.2344V51.6094H320V33.3281C320 29.625 319.531 27.1406 318.594 25.875C317.656 24.5625 316.203 23.9062 314.234 23.9062C311.938 23.9062 310.391 24.75 309.594 26.4375C308.797 28.0781 308.398 30.2812 308.398 33.0469V94.9922C308.398 98.4141 308.891 100.828 309.875 102.234C310.906 103.641 312.359 104.344 314.234 104.344C316.344 104.344 317.82 103.477 318.664 101.742C319.555 100.008 320 97.7578 320 94.9922V72.7031H344.891V96.1172C344.891 106.992 342.148 114.891 336.664 119.812C331.18 124.688 323.516 127.125 313.672 127.125Z" fill="white"/>
<path d="M353.188 126V2.25H377.797V46.4766H389.469V2.25H414.078V126H389.469V69.8906H377.797V126H353.188Z" fill="white"/>
<path d="M1.48438 126H0.484375V127H1.48438V126ZM1.48438 2.25V1.25H0.484375V2.25H1.48438ZM39.1719 2.25L40.1625 2.11336L40.0434 1.25H39.1719V2.25ZM49.5781 77.6953L48.5875 77.8319L50.5689 77.831L49.5781 77.6953ZM59.9141 2.25V1.25H59.0417L58.9233 2.11427L59.9141 2.25ZM97.9531 2.25H98.9531V1.25H97.9531V2.25ZM97.9531 126V127H98.9531V126H97.9531ZM75.3125 126H74.3125V127H75.3125V126ZM75.3125 36.8438H76.3125L74.325 36.6864L75.3125 36.8438ZM61.1094 126V127H61.9627L62.0969 126.157L61.1094 126ZM38.8906 126L37.9046 126.166L38.0453 127H38.8906V126ZM23.8438 36.8438L24.8298 36.6773L22.8438 36.8438H23.8438ZM23.8438 126V127H24.8438V126H23.8438ZM108.922 126H107.922V127H108.922V126ZM108.922 2.25V1.25H107.922V2.25H108.922ZM158.422 2.25H159.422V1.25H158.422V2.25ZM158.422 26.1562V27.1562H159.422V26.1562H158.422ZM134.094 26.1562V25.1562H133.094V26.1562H134.094ZM134.094 50.2734H133.094V51.2734H134.094V50.2734ZM157.438 50.2734H158.438V49.2734H157.438V50.2734ZM157.438 73.5469V74.5469H158.438V73.5469H157.438ZM134.094 73.5469V72.5469H133.094V73.5469H134.094ZM134.094 101.883H133.094V102.883H134.094V101.883ZM160.039 101.883H161.039V100.883H160.039V101.883ZM160.039 126V127H161.039V126H160.039ZM168.266 126H167.266V127H168.266V126ZM168.266 2.25V1.25H167.266V2.25H168.266ZM193.016 2.25H194.016V1.25H193.016V2.25ZM193.016 104.906H192.016V105.906H193.016V104.906ZM218.469 104.906H219.469V103.906H218.469V104.906ZM218.469 126V127H219.469V126H218.469ZM225.5 126H224.5V127H225.5V126ZM225.5 2.25V1.25H224.5V2.25H225.5ZM275 2.25H276V1.25H275V2.25ZM275 26.1562V27.1562H276V26.1562H275ZM250.672 26.1562V25.1562H249.672V26.1562H250.672ZM250.672 50.2734H249.672V51.2734H250.672V50.2734ZM274.016 50.2734H275.016V49.2734H274.016V50.2734ZM274.016 73.5469V74.5469H275.016V73.5469H274.016ZM250.672 73.5469V72.5469H249.672V73.5469H250.672ZM250.672 101.883H249.672V102.883H250.672V101.883ZM276.617 101.883H277.617V100.883H276.617V101.883ZM276.617 126V127H277.617V126H276.617ZM292.016 118.758L291.3 119.456L291.303 119.459L292.016 118.758ZM290.961 10.6875L290.161 10.0875L290.158 10.0913L290.961 10.6875ZM329.844 4.35938L329.415 5.26293L329.419 5.26461L329.844 4.35938ZM340.672 14.0625L339.818 14.5825L339.82 14.5866L340.672 14.0625ZM344.609 51.6094V52.6094H345.609V51.6094H344.609ZM320 51.6094H319V52.6094H320V51.6094ZM318.594 25.875L317.78 26.4562L317.785 26.4633L317.79 26.4702L318.594 25.875ZM309.594 26.4375L310.493 26.8744L310.498 26.8645L309.594 26.4375ZM309.875 102.234L309.056 102.808L309.062 102.817L309.069 102.826L309.875 102.234ZM318.664 101.742L317.774 101.285L317.77 101.295L317.765 101.305L318.664 101.742ZM320 72.7031V71.7031H319V72.7031H320ZM344.891 72.7031H345.891V71.7031H344.891V72.7031ZM336.664 119.812L337.328 120.56L337.332 120.557L336.664 119.812ZM353.188 126H352.188V127H353.188V126ZM353.188 2.25V1.25H352.188V2.25H353.188ZM377.797 2.25H378.797V1.25H377.797V2.25ZM377.797 46.4766H376.797V47.4766H377.797V46.4766ZM389.469 46.4766V47.4766H390.469V46.4766H389.469ZM389.469 2.25V1.25H388.469V2.25H389.469ZM414.078 2.25H415.078V1.25H414.078V2.25ZM414.078 126V127H415.078V126H414.078ZM389.469 126H388.469V127H389.469V126ZM389.469 69.8906H390.469V68.8906H389.469V69.8906ZM377.797 69.8906V68.8906H376.797V69.8906H377.797ZM377.797 126V127H378.797V126H377.797ZM2.48438 126V2.25H0.484375V126H2.48438ZM1.48438 3.25H39.1719V1.25H1.48438V3.25ZM38.1813 2.38664L48.5875 77.8319L50.5687 77.5587L40.1625 2.11336L38.1813 2.38664ZM50.5689 77.831L60.9048 2.38573L58.9233 2.11427L48.5874 77.5596L50.5689 77.831ZM59.9141 3.25H97.9531V1.25H59.9141V3.25ZM96.9531 2.25V126H98.9531V2.25H96.9531ZM97.9531 125H75.3125V127H97.9531V125ZM76.3125 126V36.8438H74.3125V126H76.3125ZM74.325 36.6864L60.1218 125.843L62.0969 126.157L76.3 37.0011L74.325 36.6864ZM61.1094 125H38.8906V127H61.1094V125ZM39.8767 125.834L24.8298 36.6773L22.8577 37.0102L37.9046 126.166L39.8767 125.834ZM22.8438 36.8438V126H24.8438V36.8438H22.8438ZM23.8438 125H1.48438V127H23.8438V125ZM109.922 126V2.25H107.922V126H109.922ZM108.922 3.25H158.422V1.25H108.922V3.25ZM157.422 2.25V26.1562H159.422V2.25H157.422ZM158.422 25.1562H134.094V27.1562H158.422V25.1562ZM133.094 26.1562V50.2734H135.094V26.1562H133.094ZM134.094 51.2734H157.438V49.2734H134.094V51.2734ZM156.438 50.2734V73.5469H158.438V50.2734H156.438ZM157.438 72.5469H134.094V74.5469H157.438V72.5469ZM133.094 73.5469V101.883H135.094V73.5469H133.094ZM134.094 102.883H160.039V100.883H134.094V102.883ZM159.039 101.883V126H161.039V101.883H159.039ZM160.039 125H108.922V127H160.039V125ZM169.266 126V2.25H167.266V126H169.266ZM168.266 3.25H193.016V1.25H168.266V3.25ZM192.016 2.25V104.906H194.016V2.25H192.016ZM193.016 105.906H218.469V103.906H193.016V105.906ZM217.469 104.906V126H219.469V104.906H217.469ZM218.469 125H168.266V127H218.469V125ZM226.5 126V2.25H224.5V126H226.5ZM225.5 3.25H275V1.25H225.5V3.25ZM274 2.25V26.1562H276V2.25H274ZM275 25.1562H250.672V27.1562H275V25.1562ZM249.672 26.1562V50.2734H251.672V26.1562H249.672ZM250.672 51.2734H274.016V49.2734H250.672V51.2734ZM273.016 50.2734V73.5469H275.016V50.2734H273.016ZM274.016 72.5469H250.672V74.5469H274.016V72.5469ZM249.672 73.5469V101.883H251.672V73.5469H249.672ZM250.672 102.883H276.617V100.883H250.672V102.883ZM275.617 101.883V126H277.617V101.883H275.617ZM276.617 125H225.5V127H276.617V125ZM313.672 126.125C304.945 126.125 297.997 123.416 292.729 118.057L291.303 119.459C297.003 125.256 304.493 128.125 313.672 128.125V126.125ZM292.732 118.06C287.524 112.718 284.859 105.192 284.859 95.3438H282.859C282.859 105.558 285.632 113.642 291.3 119.456L292.732 118.06ZM284.859 95.3438V38.25H282.859V95.3438H284.859ZM284.859 38.25C284.859 26.3608 287.208 17.4183 291.764 11.2837L290.158 10.0913C285.245 16.7067 282.859 26.1392 282.859 38.25H284.859ZM291.761 11.2875C296.292 5.24575 303.697 2.125 314.234 2.125V0.125C303.303 0.125 295.192 3.37925 290.161 10.0875L291.761 11.2875ZM314.234 2.125C319.97 2.125 325.023 3.17981 329.415 5.26292L330.272 3.45583C325.571 1.22644 320.218 0.125 314.234 0.125V2.125ZM329.419 5.26461C333.836 7.33785 337.295 10.4387 339.818 14.5824L341.526 13.5426C338.798 9.06132 335.039 5.6934 330.269 3.45414L329.419 5.26461ZM339.82 14.5866C342.323 18.6538 343.609 23.8492 343.609 30.2344H345.609C345.609 23.5883 344.271 18.0024 341.524 13.5384L339.82 14.5866ZM343.609 30.2344V51.6094H345.609V30.2344H343.609ZM344.609 50.6094H320V52.6094H344.609V50.6094ZM321 51.6094V33.3281H319V51.6094H321ZM321 33.3281C321 31.4402 320.881 29.8264 320.631 28.5021C320.384 27.1914 319.994 26.0856 319.397 25.2798L317.79 26.4702C318.131 26.93 318.444 27.6992 318.666 28.8729C318.885 30.033 319 31.5129 319 33.3281H321ZM319.407 25.2938C318.24 23.6593 316.446 22.9062 314.234 22.9062V24.9062C315.961 24.9062 317.073 25.4657 317.78 26.4562L319.407 25.2938ZM314.234 22.9062C312.968 22.9062 311.831 23.1385 310.873 23.6612C309.902 24.1907 309.173 24.9872 308.69 26.0105L310.498 26.8645C310.812 26.2003 311.254 25.7312 311.83 25.417C312.419 25.0959 313.204 24.9062 314.234 24.9062V22.9062ZM308.694 26.0006C307.806 27.8294 307.398 30.201 307.398 33.0469H309.398C309.398 30.3615 309.788 28.3268 310.493 26.8744L308.694 26.0006ZM307.398 33.0469V94.9922H309.398V33.0469H307.398ZM307.398 94.9922C307.398 98.4497 307.884 101.134 309.056 102.808L310.694 101.661C309.897 100.522 309.398 98.3784 309.398 94.9922H307.398ZM309.069 102.826C310.304 104.511 312.069 105.344 314.234 105.344V103.344C312.65 103.344 311.508 102.771 310.681 101.643L309.069 102.826ZM314.234 105.344C315.426 105.344 316.507 105.098 317.43 104.556C318.359 104.01 319.066 103.201 319.563 102.18L317.765 101.305C317.418 102.018 316.965 102.51 316.417 102.831C315.865 103.156 315.152 103.344 314.234 103.344V105.344ZM319.554 102.199C320.541 100.277 321 97.8544 321 94.9922H319C319 97.6612 318.569 99.7389 317.774 101.285L319.554 102.199ZM321 94.9922V72.7031H319V94.9922H321ZM320 73.7031H344.891V71.7031H320V73.7031ZM343.891 72.7031V96.1172H345.891V72.7031H343.891ZM343.891 96.1172C343.891 106.845 341.185 114.411 335.996 119.068L337.332 120.557C343.112 115.37 345.891 107.139 345.891 96.1172H343.891ZM336 119.065C330.753 123.729 323.355 126.125 313.672 126.125V128.125C323.676 128.125 331.606 125.646 337.328 120.56L336 119.065ZM354.188 126V2.25H352.188V126H354.188ZM353.188 3.25H377.797V1.25H353.188V3.25ZM376.797 2.25V46.4766H378.797V2.25H376.797ZM377.797 47.4766H389.469V45.4766H377.797V47.4766ZM390.469 46.4766V2.25H388.469V46.4766H390.469ZM389.469 3.25H414.078V1.25H389.469V3.25ZM413.078 2.25V126H415.078V2.25H413.078ZM414.078 125H389.469V127H414.078V125ZM390.469 126V69.8906H388.469V126H390.469ZM389.469 68.8906H377.797V70.8906H389.469V68.8906ZM376.797 69.8906V126H378.797V69.8906H376.797ZM377.797 125H353.188V127H377.797V125Z" fill="black" mask="url(#path-1-outside-1_2_3)"/>
</svg>
